<?xml version="1.0" encoding="UTF-8"?>
<svg width="483px" height="431px" viewBox="0 0 483 431" version="1.1" xmlns="http://www.w3.org/2000/svg" xmlns:xlink="http://www.w3.org/1999/xlink">
    <!-- Generator: Sketch 60 (88103) - https://sketch.com -->
    <title>arrowprev</title>
    <desc>Created with Sketch.</desc>
    <g id="Page-1" stroke="none" stroke-width="1" fill="none" fill-rule="evenodd">
        <g id="arrowprev" fill-rule="nonzero">
            <g id="hexagonal" fill="#99CA3D">
                <path d="M477.043,193.205 L378.575,22.677 C370.601,8.875 355.892,0.385 339.968,0.385 L143.041,0.385 C127.118,0.385 112.413,8.875 104.433,22.677 L5.971,193.205 C-1.99,207.006 -1.99,223.99 5.971,237.793 L104.433,408.336 C112.413,422.138 127.118,430.629 143.041,430.629 L339.967,430.629 C355.892,430.629 370.601,422.138 378.574,408.336 L477.043,237.793 C485.003,223.99 485.003,207.006 477.043,193.205 Z" id="Path"></path>
            </g>
            <g id="arrows" transform="translate(242.500000, 215.500000) scale(-1, 1) translate(-242.500000, -215.500000) translate(129.000000, 121.000000)" fill="#FFFFFF">
                <path d="M223.353173,85.372011 L141.736619,3.76044817 C139.406817,1.43084141 136.30164,0.152129817 132.990675,0.152129817 C129.676036,0.152129817 126.572696,1.43267864 124.242895,3.76044817 L116.832729,11.1718312 C114.504765,13.4977635 113.222271,16.6045182 113.222271,19.9170426 C113.222271,23.2277298 114.504765,26.4392067 116.832729,28.765139 L164.446673,76.4798212 L13.1749275,76.4798212 C6.35456169,76.4798212 0.965517241,81.8188095 0.965517241,88.6404419 L0.965517241,99.1181606 C0.965517241,105.939793 6.35456169,111.81709 13.1749275,111.81709 L164.986864,111.81709 L116.834566,159.79817 C114.506602,162.127777 113.224109,165.150019 113.224109,168.462543 C113.224109,171.771393 114.506602,174.837729 116.834566,177.165499 L124.244732,184.552998 C126.574534,186.882604 129.677874,188.15213 132.992513,188.15213 C136.303477,188.15213 139.408654,186.866069 141.738456,184.536463 L223.355011,102.926737 C225.690324,100.589781 226.974655,97.4701659 226.965517,94.153967 C226.972818,90.8267448 225.690324,87.7052922 223.353173,85.372011 Z" id="Path"></path>
            </g>
        </g>
    </g>
</svg>