<svg id="tech-service" xmlns="http://www.w3.org/2000/svg" width="60.563" height="60.563" viewBox="0 0 60.563 60.563">
  <g id="Group_2" data-name="Group 2">
    <g id="Group_1" data-name="Group 1">
      <path id="Path_31" data-name="Path 31" d="M0,120.375H60.563V80H0ZM2.019,82.019H58.544v36.338H2.019Z" transform="translate(0 -69.906)" fill="#fff"/>
      <rect id="Rectangle_56" data-name="Rectangle 56" width="2" height="2" transform="translate(27.012 44.563)" fill="#fff"/>
      <rect id="Rectangle_57" data-name="Rectangle 57" width="2" height="2" transform="translate(31.012 44.563)" fill="#fff"/>
      <rect id="Rectangle_58" data-name="Rectangle 58" width="3" height="2" transform="translate(35.012 44.563)" fill="#fff"/>
      <rect id="Rectangle_59" data-name="Rectangle 59" width="2" height="2" transform="translate(39.012 44.563)" fill="#fff"/>
      <rect id="Rectangle_60" data-name="Rectangle 60" width="1" height="2" transform="translate(44.012 44.563)" fill="#fff"/>
      <rect id="Rectangle_61" data-name="Rectangle 61" width="1" height="2" transform="translate(48.012 44.563)" fill="#fff"/>
      <rect id="Rectangle_62" data-name="Rectangle 62" width="3" height="2" transform="translate(51.012 44.563)" fill="#fff"/>
      <rect id="Rectangle_63" data-name="Rectangle 63" width="2" height="2" transform="translate(55.012 44.563)" fill="#fff"/>
      <rect id="Rectangle_64" data-name="Rectangle 64" width="2" height="2" transform="translate(23.012 44.563)" fill="#fff"/>
      <rect id="Rectangle_65" data-name="Rectangle 65" width="2" height="2" transform="translate(19.012 44.563)" fill="#fff"/>
      <rect id="Rectangle_66" data-name="Rectangle 66" width="2" height="2" transform="translate(15.012 44.563)" fill="#fff"/>
      <rect id="Rectangle_67" data-name="Rectangle 67" width="2" height="2" transform="translate(11.012 44.563)" fill="#fff"/>
      <rect id="Rectangle_68" data-name="Rectangle 68" width="2" height="2" transform="translate(7.012 44.563)" fill="#fff"/>
      <rect id="Rectangle_69" data-name="Rectangle 69" width="2" height="2" transform="translate(3.012 44.563)" fill="#fff"/>
      <rect id="Rectangle_70" data-name="Rectangle 70" width="2" height="3" transform="translate(27.012 13.563)" fill="#fff"/>
      <rect id="Rectangle_71" data-name="Rectangle 71" width="2" height="3" transform="translate(31.012 13.563)" fill="#fff"/>
      <rect id="Rectangle_72" data-name="Rectangle 72" width="3" height="3" transform="translate(35.012 13.563)" fill="#fff"/>
      <rect id="Rectangle_73" data-name="Rectangle 73" width="2" height="3" transform="translate(39.012 13.563)" fill="#fff"/>
      <rect id="Rectangle_74" data-name="Rectangle 74" width="1" height="3" transform="translate(44.012 13.563)" fill="#fff"/>
      <rect id="Rectangle_75" data-name="Rectangle 75" width="1" height="3" transform="translate(48.012 13.563)" fill="#fff"/>
      <rect id="Rectangle_76" data-name="Rectangle 76" width="3" height="3" transform="translate(51.012 13.563)" fill="#fff"/>
      <rect id="Rectangle_77" data-name="Rectangle 77" width="2" height="3" transform="translate(55.012 13.563)" fill="#fff"/>
      <rect id="Rectangle_78" data-name="Rectangle 78" width="2" height="3" transform="translate(23.012 13.563)" fill="#fff"/>
      <rect id="Rectangle_79" data-name="Rectangle 79" width="2" height="3" transform="translate(19.012 13.563)" fill="#fff"/>
      <rect id="Rectangle_80" data-name="Rectangle 80" width="2" height="3" transform="translate(15.012 13.563)" fill="#fff"/>
      <rect id="Rectangle_81" data-name="Rectangle 81" width="2" height="3" transform="translate(11.012 13.563)" fill="#fff"/>
      <rect id="Rectangle_82" data-name="Rectangle 82" width="2" height="3" transform="translate(7.012 13.563)" fill="#fff"/>
      <rect id="Rectangle_83" data-name="Rectangle 83" width="2" height="3" transform="translate(3.012 13.563)" fill="#fff"/>
      <path id="Path_32" data-name="Path 32" d="M25.571,6.056,17.5,0H0V8.075H60.563V6.056Zm-23.552,0V2.019h14.8l5.383,4.038Z" fill="#fff"/>
      <path id="Path_33" data-name="Path 33" d="M57.534,416H34.319v1.009H30.281v2.019H8.075v-2.2L0,418.173V421.9l8.075,1.346v-2.2H30.281v2.019h4.038v1.009H57.534a3.028,3.028,0,0,0,3.028-3.028v-2.019A3.028,3.028,0,0,0,57.534,416ZM6.056,420.864l-4.038-.672v-.309l4.038-.672Zm28.263.183H32.3v-2.019h2.019Zm24.225,0a1.009,1.009,0,0,1-1.009,1.009h-21.2v-4.038h21.2a1.009,1.009,0,0,1,1.009,1.009Z" transform="translate(0 -363.512)" fill="#fff"/>
      <rect id="Rectangle_84" data-name="Rectangle 84" width="2" height="2" transform="translate(51.012 55.563)" fill="#fff"/>
      <rect id="Rectangle_85" data-name="Rectangle 85" width="3" height="2" transform="translate(54.012 55.563)" fill="#fff"/>
      <rect id="Rectangle_86" data-name="Rectangle 86" width="1" height="2" transform="translate(47.012 55.563)" fill="#fff"/>
      <rect id="Rectangle_87" data-name="Rectangle 87" width="2" height="2" transform="translate(42.012 55.563)" fill="#fff"/>
      <rect id="Rectangle_88" data-name="Rectangle 88" width="3" height="2" transform="translate(38.012 55.563)" fill="#fff"/>
      <path id="Path_34" data-name="Path 34" d="M164.312,152.2l2.5-2.5-4.28-4.28-2.5,2.5a8.586,8.586,0,0,0-.887-.372V144h-6.056v3.545a8.569,8.569,0,0,0-.887.368l-2.5-2.5-4.28,4.28,2.5,2.5a8.576,8.576,0,0,0-.368.887H144v6.056h3.545a8.568,8.568,0,0,0,.368.887l-2.5,2.5,4.28,4.28,2.5-2.5a8.566,8.566,0,0,0,.887.368v3.549h6.056V164.68a8.571,8.571,0,0,0,.887-.368l2.5,2.5,4.28-4.28-2.5-2.5a8.589,8.589,0,0,0,.372-.887h3.545v-6.056H164.68A8.573,8.573,0,0,0,164.312,152.2Zm1.895,4.925h-3.05l-.2.755a6.861,6.861,0,0,1-.756,1.817l-.4.676,2.167,2.167-1.429,1.424-2.167-2.167-.676.4a6.861,6.861,0,0,1-1.817.756l-.755.2v3.05H155.1v-3.05l-.755-.2a6.864,6.864,0,0,1-1.812-.756l-.676-.4-2.167,2.167-1.429-1.429,2.167-2.167-.4-.676a6.861,6.861,0,0,1-.756-1.817l-.2-.755h-3.05V155.1h3.05l.2-.755a6.865,6.865,0,0,1,.756-1.812l.4-.676-2.167-2.167,1.429-1.429,2.167,2.167.676-.4a6.865,6.865,0,0,1,1.812-.756l.755-.2v-3.05h2.019v3.05l.755.2a6.861,6.861,0,0,1,1.817.756l.676.4,2.167-2.167,1.429,1.429L161.8,151.86l.4.676a6.866,6.866,0,0,1,.756,1.812l.2.755h3.045Z" transform="translate(-125.831 -125.831)" fill="#fff"/>
      <path id="Path_35" data-name="Path 35" d="M205.047,200a5.047,5.047,0,1,0,5.047,5.047A5.047,5.047,0,0,0,205.047,200Zm0,8.075a3.028,3.028,0,1,1,3.028-3.028A3.028,3.028,0,0,1,205.047,208.075Z" transform="translate(-174.766 -174.766)" fill="#fff"/>
    </g>
  </g>
</svg>
