<svg xmlns="http://www.w3.org/2000/svg" width="60" height="60.089" viewBox="0 0 60 60.089">
  <g id="Processor_security" data-name="Processor security" transform="translate(-2 -2)">
    <path id="Path_1" data-name="Path 1" d="M27,11h2v2H27Z" fill="#fff"/>
    <path id="Path_2" data-name="Path 2" d="M53,35h2v2H53Z" fill="#fff"/>
    <path id="Path_3" data-name="Path 3" d="M35,51h2v2H35Z" fill="#fff"/>
    <path id="Path_4" data-name="Path 4" d="M27,54h2v2H27Z" fill="#fff"/>
    <path id="Path_5" data-name="Path 5" d="M11,31h2v2H11Z" fill="#fff"/>
    <path id="Path_6" data-name="Path 6" d="M35,11h2v2H35Z" fill="#fff"/>
    <path id="Path_7" data-name="Path 7" d="M51,27h2v2H51Z" fill="#fff"/>
    <path id="Path_8" data-name="Path 8" d="M46,17h2v2H46Z" fill="#fff"/>
    <path id="Path_9" data-name="Path 9" d="M16,17h2v2H16Z" fill="#fff"/>
    <path id="Path_10" data-name="Path 10" d="M46,45h2v2H46Z" fill="#fff"/>
    <path id="Path_11" data-name="Path 11" d="M16,45h2v2H16Z" fill="#fff"/>
    <path id="Path_12" data-name="Path 12" d="M31.882,31A2.994,2.994,0,0,0,31,36.822V39h2V36.815A2.993,2.993,0,0,0,31.882,31ZM33,33.961A1,1,0,1,1,31.96,33H32a1,1,0,0,1,1,.96Z" fill="#fff"/>
    <path id="Path_13" data-name="Path 13" d="M37,28.184V27a5,5,0,0,0-10,0v1.184A3,3,0,0,0,25,31v8a3,3,0,0,0,3,3h8a3,3,0,0,0,3-3V31a3,3,0,0,0-2-2.816ZM29,27a3,3,0,0,1,6,0v1H29Zm8,12a1,1,0,0,1-1,1H28a1,1,0,0,1-1-1V31a1,1,0,0,1,1-1h8a1,1,0,0,1,1,1Z" fill="#fff"/>
    <path id="Path_14" data-name="Path 14" d="M59,41a2.951,2.951,0,0,0-1.285.3l-2.3-2.3H46V37h5V35H46V33h5.236l5.687-2.844A2.994,2.994,0,1,0,56,28a2.9,2.9,0,0,0,.037.363L50.764,31H46V29h3V27H46V25h4.414l3.3-3.3A2.951,2.951,0,0,0,55,22a3,3,0,1,0-3-3,2.951,2.951,0,0,0,.3,1.285L49.586,23H46a5.006,5.006,0,0,0-5-5V15.414L46.715,9.7A2.951,2.951,0,0,0,48,10a3,3,0,1,0-3-3,2.951,2.951,0,0,0,.3,1.285l-6.3,6.3V18H37V15H35v3H33V10.816a3,3,0,1,0-2,0V18H29V15H27v3H25V10.586l-4.3-4.3A2.951,2.951,0,0,0,21,5a3,3,0,1,0-3,3,2.951,2.951,0,0,0,1.285-.3L23,11.414V18a5.006,5.006,0,0,0-5,5H14.414L11.7,20.285A2.951,2.951,0,0,0,12,19a3,3,0,1,0-3,3,2.951,2.951,0,0,0,1.285-.3l3.3,3.3H18v2H11.638L6.4,31.364A2.953,2.953,0,0,0,5,31a3,3,0,1,0,2.763,1.832L12.362,29H18v2H15v2h3v2H9v2h9v2H12.465l-4.03,6.044A2.969,2.969,0,0,0,8,45a3.028,3.028,0,1,0,2.21.988L13.535,41H18a5.006,5.006,0,0,0,5,5v6.586L19.285,56.3A2.951,2.951,0,0,0,18,56a3,3,0,1,0,3,3,2.951,2.951,0,0,0-.3-1.285l4.3-4.3V46h2v6h2V46h2v8.554l6.074,3.8a3.044,3.044,0,1,0,1.069-1.691L33,53.446V46h2v3h2V46h2v8h7.184a3,3,0,1,0,0-2H41V46a5.006,5.006,0,0,0,5-5h8.586L56.3,42.715A2.951,2.951,0,0,0,56,44a3,3,0,1,0,3-3Zm0-14a1,1,0,1,1-1,1A1,1,0,0,1,59,27Zm-4-9a1,1,0,1,1-1,1A1,1,0,0,1,55,18ZM48,6a1,1,0,1,1-1,1A1,1,0,0,1,48,6ZM32,7a1,1,0,1,1-1,1A1,1,0,0,1,32,7ZM17,5a1,1,0,1,1,1,1A1,1,0,0,1,17,5ZM8,19a1,1,0,1,1,1,1A1,1,0,0,1,8,19ZM5,35a1,1,0,1,1,1-1A1,1,0,0,1,5,35ZM8,49a1,1,0,1,1,1-1A1,1,0,0,1,8,49ZM18,60a1,1,0,1,1,1-1A1,1,0,0,1,18,60Zm22-2a1,1,0,1,1-1,1A1,1,0,0,1,40,58Zm9-6a1,1,0,1,1-1,1A1,1,0,0,1,49,52ZM44,41a3,3,0,0,1-3,3H23a3,3,0,0,1-3-3V23a3,3,0,0,1,3-3H41a3,3,0,0,1,3,3Zm15,4a1,1,0,1,1,1-1A1,1,0,0,1,59,45Z" fill="#fff"/>
  </g>
</svg>
