<svg height="480pt" viewBox="0 0 480 480" width="480pt" xmlns="http://www.w3.org/2000/svg"><path d="m24 208h156.6875l40 40c4.574219 4.574219 11.457031 5.945312 17.433594 3.46875 5.980468-2.476562 9.878906-8.308594 9.878906-14.78125v-28.6875h16c13.25-.015625 23.984375-10.75 24-24v-160c-.015625-13.25-10.75-23.984375-24-24h-240c-13.25.015625-23.984375 10.75-24 24v160c.015625 13.25 10.75 23.984375 24 24zm-8-184c.003906-4.414062 3.585938-7.996094 8-8h240c4.414062.003906 7.996094 3.585938 8 8v160c-.003906 4.414062-3.585938 7.996094-8 8h-16c-8.832031.007812-15.992188 7.167969-16 16v28.6875l-40-40c-2.992188-3.011719-7.066406-4.699219-11.3125-4.6875h-156.6875c-4.414062-.003906-7.996094-3.585938-8-8zm0 0"/><path d="m80 128c13.253906 0 24-10.746094 24-24s-10.746094-24-24-24-24 10.746094-24 24c.015625 13.25 10.75 23.984375 24 24zm0-32c4.417969 0 8 3.582031 8 8s-3.582031 8-8 8-8-3.582031-8-8c.003906-4.414062 3.585938-7.996094 8-8zm0 0"/><path d="m144 128c13.253906 0 24-10.746094 24-24s-10.746094-24-24-24-24 10.746094-24 24c.015625 13.25 10.75 23.984375 24 24zm0-32c4.417969 0 8 3.582031 8 8s-3.582031 8-8 8-8-3.582031-8-8c.003906-4.414062 3.585938-7.996094 8-8zm0 0"/><path d="m208 128c13.253906 0 24-10.746094 24-24s-10.746094-24-24-24-24 10.746094-24 24c.015625 13.25 10.75 23.984375 24 24zm0-32c4.417969 0 8 3.582031 8 8s-3.582031 8-8 8-8-3.582031-8-8c.003906-4.414062 3.585938-7.996094 8-8zm0 0"/><path d="m456 96h-152v16h152c4.414062.003906 7.996094 3.585938 8 8v40h-160v16h160v280c-.003906 4.414062-3.585938 7.996094-8 8h-368c-4.414062-.003906-7.996094-3.585938-8-8v-232h-16v232c.015625 13.25 10.75 23.984375 24 24h368c13.25-.015625 23.984375-10.75 24-24v-336c-.015625-13.25-10.75-23.984375-24-24zm0 0"/><path d="m384 136c0 4.417969-3.582031 8-8 8s-8-3.582031-8-8 3.582031-8 8-8 8 3.582031 8 8zm0 0"/><path d="m416 136c0 4.417969-3.582031 8-8 8s-8-3.582031-8-8 3.582031-8 8-8 8 3.582031 8 8zm0 0"/><path d="m448 136c0 4.417969-3.582031 8-8 8s-8-3.582031-8-8 3.582031-8 8-8 8 3.582031 8 8zm0 0"/><path d="m112 416c.007812 8.832031 7.167969 15.992188 16 16h64c8.832031-.007812 15.992188-7.167969 16-16v-64c-.007812-8.832031-7.167969-15.992188-16-16h-64c-8.832031.007812-15.992188 7.167969-16 16zm16-64h64v64h-64zm0 0"/><path d="m160 288c8.832031-.007812 15.992188-7.167969 16-16v-32c-.007812-8.832031-7.167969-15.992188-16-16h-32c-8.832031.007812-15.992188 7.167969-16 16v32c.007812 8.832031 7.167969 15.992188 16 16zm-32-48h32v32h-32l-.011719-32zm0 0"/><path d="m432 240v-16c-.007812-8.832031-7.167969-15.992188-16-16h-16c-8.832031.007812-15.992188 7.167969-16 16v16c.007812 8.832031 7.167969 15.992188 16 16h16c8.832031-.007812 15.992188-7.167969 16-16zm-16 0h-16v-16h16zm0 0"/><path d="m224 416h16v16h-16zm0 0"/><path d="m256 416h136v16h-136zm0 0"/><path d="m408 416h16v16h-16zm0 0"/><path d="m224 384h16v16h-16zm0 0"/><path d="m256 384h136v16h-136zm0 0"/><path d="m408 384h16v16h-16zm0 0"/><path d="m224 352h16v16h-16zm0 0"/><path d="m256 352h136v16h-136zm0 0"/><path d="m408 352h16v16h-16zm0 0"/><path d="m112 304h16v16h-16zm0 0"/><path d="m144 304h248v16h-248zm0 0"/><path d="m408 304h16v16h-16zm0 0"/><path d="m192 272h16v16h-16zm0 0"/><path d="m224 272h168v16h-168zm0 0"/><path d="m408 272h16v16h-16zm0 0"/><path d="m352 240h16v16h-16zm0 0"/><path d="m296 240h40v16h-40zm0 0"/><path d="m264 240h16v16h-16zm0 0"/><path d="m352 208h16v16h-16zm0 0"/><path d="m304 208h32v16h-32zm0 0"/></svg>