<svg id="Out_line" height="512" viewBox="0 0 512 512" width="512" xmlns="http://www.w3.org/2000/svg" data-name="Out line"><path d="m472 288h-160a24.0275 24.0275 0 0 0 -24 24v16h16v-16a8.00917 8.00917 0 0 1 8-8h128a8.00917 8.00917 0 0 1 8 8v88a8.00917 8.00917 0 0 1 -8 8h-128a8.00917 8.00917 0 0 1 -8-8v-24h-16v24a24.0275 24.0275 0 0 0 24 24h49.05176l10.97949 16.46826a4.84464 4.84464 0 0 1 -4.03125 7.53174 8 8 0 0 0 0 16h48a20.84479 20.84479 0 0 0 17.34375-32.40723l-5.06201-7.59277h43.71826a24.02718 24.02718 0 0 0 24-24v-88a24.02718 24.02718 0 0 0 -24-24zm-51.96875 152.46826a4.84464 4.84464 0 0 1 -4.03125 7.53174h-27.72266a20.81159 20.81159 0 0 0 -2.93359-16.40723l-5.06201-7.59277h28.77zm59.96875-40.46826a8.00917 8.00917 0 0 1 -8 8h-9.376a23.89427 23.89427 0 0 0 1.376-8v-88a23.89427 23.89427 0 0 0 -1.376-8h9.376a8.00917 8.00917 0 0 1 8 8z"/><path d="m40 424h59.71875l10.97852 16.46826a4.84444 4.84444 0 0 1 -4.03027 7.53174 8 8 0 1 0 0 16h48a20.84432 20.84432 0 0 0 17.34278-32.40674l-5.06203-7.59326h33.05225a24.02718 24.02718 0 0 0 24-24v-24h-16v24a8.00917 8.00917 0 0 1 -8 8h-9.37622a23.88238 23.88238 0 0 0 1.37622-8v-24h-16v24a8.00917 8.00917 0 0 1 -8 8h-128a8.00917 8.00917 0 0 1 -8-8v-88a8.00917 8.00917 0 0 1 8-8h128a8.00917 8.00917 0 0 1 8 8v16h16v-16a23.88238 23.88238 0 0 0 -1.37622-8h9.37622a8.00917 8.00917 0 0 1 8 8v16h16v-16a24.02718 24.02718 0 0 0 -24-24h-160a24.0275 24.0275 0 0 0 -24 24v88a24.0275 24.0275 0 0 0 24 24zm118.69727 16.46826a4.84444 4.84444 0 0 1 -4.03027 7.53174h-27.72364a20.8019 20.8019 0 0 0 -2.93359-16.40674l-5.06202-7.59326h28.771z"/><path d="m136 344v16h200v-16h-72v-88h128a8.00008 8.00008 0 0 0 8-8v-192a8.00008 8.00008 0 0 0 -8-8h-272a8.00008 8.00008 0 0 0 -8 8v192a8.00008 8.00008 0 0 0 8 8h128v88zm-8-216h192v48h-192zm256 48h-48v-48h48zm0 64h-48v-48h48zm0-128h-48v-48h48zm-256-48h192v48h-192zm0 128h192v48h-192z"/><path d="m384 344h16v16h-16z"/><path d="m352 344h16v16h-16z"/><path d="m104 344h16v16h-16z"/><path d="m72 344h16v16h-16z"/><path d="m152 208h16v16h-16z"/><path d="m184 208h16v16h-16z"/><path d="m216 208h48v16h-48z"/><path d="m152 144h16v16h-16z"/><path d="m184 144h16v16h-16z"/><path d="m216 144h48v16h-48z"/><path d="m152 80h16v16h-16z"/><path d="m184 80h16v16h-16z"/><path d="m216 80h48v16h-48z"/></svg>