<svg xmlns="http://www.w3.org/2000/svg" width="60" height="60" viewBox="0 0 60 60">
  <g id="Network" transform="translate(-2 -2)">
    <path id="Path_22" data-name="Path 22" d="M5,18h5v3H7v2H19V21H16V18h5a3,3,0,0,0,3-3V5a3,3,0,0,0-3-3H5A3,3,0,0,0,2,5V15a3,3,0,0,0,3,3Zm9,3H12V18h2ZM4,5A1,1,0,0,1,5,4H21a1,1,0,0,1,1,1V15a1,1,0,0,1-1,1H5a1,1,0,0,1-1-1Z" fill="#fff"/>
    <path id="Path_23" data-name="Path 23" d="M59,2H43a3,3,0,0,0-3,3V15a3,3,0,0,0,3,3h5v3H45v2H57V21H54V18h5a3,3,0,0,0,3-3V5a3,3,0,0,0-3-3ZM52,21H50V18h2Zm8-6a1,1,0,0,1-1,1H43a1,1,0,0,1-1-1V5a1,1,0,0,1,1-1H59a1,1,0,0,1,1,1Z" fill="#fff"/>
    <rect id="Rectangle_32" data-name="Rectangle 32" width="2" height="2" transform="translate(12 13)" fill="#fff"/>
    <rect id="Rectangle_33" data-name="Rectangle 33" width="2" height="2" transform="translate(15 13)" fill="#fff"/>
    <rect id="Rectangle_34" data-name="Rectangle 34" width="2" height="2" transform="translate(9 13)" fill="#fff"/>
    <rect id="Rectangle_35" data-name="Rectangle 35" width="2" height="2" transform="translate(50 13)" fill="#fff"/>
    <rect id="Rectangle_36" data-name="Rectangle 36" width="2" height="2" transform="translate(53 13)" fill="#fff"/>
    <rect id="Rectangle_37" data-name="Rectangle 37" width="2" height="2" transform="translate(47 13)" fill="#fff"/>
    <path id="Path_24" data-name="Path 24" d="M21,41H5a3,3,0,0,0-3,3V54a3,3,0,0,0,3,3h5v3H7v2H19V60H16V57h5a3,3,0,0,0,3-3V44A3,3,0,0,0,21,41ZM14,60H12V57h2Zm8-6a1,1,0,0,1-1,1H5a1,1,0,0,1-1-1V44a1,1,0,0,1,1-1H21a1,1,0,0,1,1,1Z" fill="#fff"/>
    <path id="Path_25" data-name="Path 25" d="M59,41H43a3,3,0,0,0-3,3V54a3,3,0,0,0,3,3h5v3H45v2H57V60H54V57h5a3,3,0,0,0,3-3V44a3,3,0,0,0-3-3ZM52,60H50V57h2Zm8-6a1,1,0,0,1-1,1H43a1,1,0,0,1-1-1V44a1,1,0,0,1,1-1H59a1,1,0,0,1,1,1Z" fill="#fff"/>
    <rect id="Rectangle_38" data-name="Rectangle 38" width="2" height="2" transform="translate(12 52)" fill="#fff"/>
    <rect id="Rectangle_39" data-name="Rectangle 39" width="2" height="2" transform="translate(15 52)" fill="#fff"/>
    <rect id="Rectangle_40" data-name="Rectangle 40" width="2" height="2" transform="translate(9 52)" fill="#fff"/>
    <rect id="Rectangle_41" data-name="Rectangle 41" width="2" height="2" transform="translate(50 52)" fill="#fff"/>
    <rect id="Rectangle_42" data-name="Rectangle 42" width="2" height="2" transform="translate(53 52)" fill="#fff"/>
    <rect id="Rectangle_43" data-name="Rectangle 43" width="2" height="2" transform="translate(47 52)" fill="#fff"/>
    <path id="Path_26" data-name="Path 26" d="M33,50.184V39H31V50.184A3,3,0,0,0,29.184,52H25v2h4.184a2.982,2.982,0,0,0,5.632,0H39V52H34.816A3,3,0,0,0,33,50.184ZM32,54a1,1,0,1,1,1-1A1,1,0,0,1,32,54Z" fill="#fff"/>
    <path id="Path_27" data-name="Path 27" d="M31,13.816V25h2V13.816A3,3,0,0,0,34.816,12H39V10H34.816a2.982,2.982,0,0,0-5.632,0H25v2h4.184A3,3,0,0,0,31,13.816ZM32,10a1,1,0,1,1-1,1A1,1,0,0,1,32,10Z" fill="#fff"/>
    <path id="Path_28" data-name="Path 28" d="M10,29v6a3,3,0,0,0,3,3H51a3,3,0,0,0,3-3V29a3,3,0,0,0-3-3H13A3,3,0,0,0,10,29Zm42,0v6a1,1,0,0,1-1,1H13a1,1,0,0,1-1-1V29a1,1,0,0,1,1-1H51A1,1,0,0,1,52,29Z" fill="#fff"/>
    <path id="Path_29" data-name="Path 29" d="M50,29H34v6H50Zm-2,4H36V31H48Z" fill="#fff"/>
    <rect id="Rectangle_44" data-name="Rectangle 44" width="2" height="2" transform="translate(14 33)" fill="#fff"/>
    <rect id="Rectangle_45" data-name="Rectangle 45" width="2" height="2" transform="translate(17 33)" fill="#fff"/>
    <rect id="Rectangle_46" data-name="Rectangle 46" width="2" height="2" transform="translate(20 33)" fill="#fff"/>
    <rect id="Rectangle_47" data-name="Rectangle 47" width="2" height="2" transform="translate(23 33)" fill="#fff"/>
    <rect id="Rectangle_48" data-name="Rectangle 48" width="2" height="2" transform="translate(14 29)" fill="#fff"/>
    <rect id="Rectangle_49" data-name="Rectangle 49" width="2" height="2" transform="translate(17 29)" fill="#fff"/>
    <rect id="Rectangle_50" data-name="Rectangle 50" width="2" height="2" transform="translate(20 29)" fill="#fff"/>
    <rect id="Rectangle_51" data-name="Rectangle 51" width="2" height="2" transform="translate(23 29)" fill="#fff"/>
    <rect id="Rectangle_52" data-name="Rectangle 52" width="2" height="2" transform="translate(26 33)" fill="#fff"/>
    <rect id="Rectangle_53" data-name="Rectangle 53" width="2" height="2" transform="translate(26 29)" fill="#fff"/>
    <rect id="Rectangle_54" data-name="Rectangle 54" width="2" height="2" transform="translate(29 33)" fill="#fff"/>
    <rect id="Rectangle_55" data-name="Rectangle 55" width="2" height="2" transform="translate(29 29)" fill="#fff"/>
  </g>
</svg>
