<svg height="512" viewBox="0 0 512 512" width="512" xmlns="http://www.w3.org/2000/svg"><g id="Out_line" data-name="Out line"><path d="m157.65723 290.34326a8.00076 8.00076 0 0 0 -5.65723-2.34326h-80a8.00008 8.00008 0 0 0 -8 8v192a8.00008 8.00008 0 0 0 8 8h128a8.00008 8.00008 0 0 0 8-8v-144a8.00035 8.00035 0 0 0 -2.34277-5.65674zm2.34277 24.97034 20.686 20.6864h-20.686zm-80 164.6864v-176h64v40a8.00008 8.00008 0 0 0 8 8h40v128z"/><path d="m96 336h32v16h-32z"/><path d="m96 368h32v16h-32z"/><path d="m144 368h32v16h-32z"/><path d="m96 400h48v16h-48z"/><path d="m160 400h16v16h-16z"/><path d="m96 432h16v16h-16z"/><path d="m128 432h48v16h-48z"/><path d="m213.65723 234.34326a8.00076 8.00076 0 0 0 -5.65723-2.34326h-80a8.00008 8.00008 0 0 0 -8 8v32h16v-24h64v40a8.00008 8.00008 0 0 0 8 8h40v128h-24v16h32a8.00008 8.00008 0 0 0 8-8v-144a8.00035 8.00035 0 0 0 -2.34277-5.65674zm2.34277 24.97034 20.686 20.6864h-20.686z"/><path d="m216 312h16v16h-16z"/><path d="m216 344h16v16h-16z"/><path d="m216 376h16v16h-16z"/><path d="m456 112a8.00008 8.00008 0 0 0 8-8v-80a8.00008 8.00008 0 0 0 -8-8h-272a8.00008 8.00008 0 0 0 -8 8v80a8.00008 8.00008 0 0 0 8 8h16v16h-16a8.00008 8.00008 0 0 0 -8 8v80a8.00008 8.00008 0 0 0 8 8h208v16h-144v16h200v64h-168v16h176a8.00008 8.00008 0 0 0 8-8v-80a8.00008 8.00008 0 0 0 -8-8h-16v-16h16a8.00008 8.00008 0 0 0 8-8v-80a8.00008 8.00008 0 0 0 -8-8h-16v-16zm-264-80h256v64h-256zm56 96v-16h144v16zm-32-16h16v16h-16zm208 128h-16v-16h16zm24-32h-256v-64h256zm-24-80h-16v-16h16z"/><path d="m208 56h64v16h-64z"/><circle cx="296" cy="64" r="8"/><circle cx="328" cy="64" r="8"/><path d="m208 168h64v16h-64z"/><circle cx="296" cy="176" r="8"/><circle cx="328" cy="176" r="8"/><circle cx="296" cy="288" r="8"/><circle cx="328" cy="288" r="8"/></g></svg>