<?xml version="1.0"?>
<svg xmlns="http://www.w3.org/2000/svg" id="Outline" viewBox="0 0 64 64" width="512" height="512"><path d="M62,27A16,16,0,1,0,46,43c.33752,0,.6676-.03,1-.05066V45a2.00229,2.00229,0,0,0,2,2v6a1.001,1.001,0,0,1-1,1H42V53a2.00229,2.00229,0,0,0-2-2H38V43H4V11H38V5a3.00328,3.00328,0,0,0-3-3H5A3.00328,3.00328,0,0,0,2,5V59a3.00328,3.00328,0,0,0,3,3H35a3.00328,3.00328,0,0,0,3-3h2a2.00229,2.00229,0,0,0,2-2V56h6a3.00328,3.00328,0,0,0,3-3V47a2.00229,2.00229,0,0,0,2-2V41.36523A16.00375,16.00375,0,0,0,62,27ZM4,5A1.001,1.001,0,0,1,5,4H35a1.001,1.001,0,0,1,1,1V9H4ZM36,45v3H4V45ZM35,60H5a1.001,1.001,0,0,1-1-1V50H36v9A1.001,1.001,0,0,1,35,60Zm3-3V53h2l.00146,4Zm4-43.4104v3.82446a.41636.41636,0,0,1-.12109.293l-3.17139,3.1709A.416.416,0,0,1,38.41406,21h-5.044A14.04979,14.04979,0,0,1,42,13.5896ZM32.33185,30h3.86737a.4168.4168,0,0,1,.35547.20117l2.38623,3.97754A.4139.4139,0,0,1,39,34.3916v.19434A2.41688,2.41688,0,0,0,41.41406,37h1.17188A.41428.41428,0,0,1,43,37.41406v3.25409A14.03372,14.03372,0,0,1,32.33185,30ZM45,40.94934V37.41406A2.41688,2.41688,0,0,0,42.58594,35H41.41406A.41428.41428,0,0,1,41,34.58594V34.3916a2.41456,2.41456,0,0,0-.34424-1.24219L38.269,29.17188A2.42714,2.42714,0,0,0,36.19922,28H32.05066C32.027,27.66833,32,27.33752,32,27a13.94284,13.94284,0,0,1,.5896-4h5.82446a2.43415,2.43415,0,0,0,1.707-.707l3.17139-3.1709A2.42966,2.42966,0,0,0,44,17.41406V13.15973A13.83458,13.83458,0,0,1,59.061,22H54.75684a.41467.41467,0,0,1-.34473-.18457L53.252,20.0752A2.40956,2.40956,0,0,0,51.24316,19H47.58594a2.43415,2.43415,0,0,0-1.707.707l-4.76612,4.7666a2.42117,2.42117,0,0,0-.30175,3.0459l2.937,4.40527A2.40956,2.40956,0,0,0,45.75684,33h4.65722a2.43415,2.43415,0,0,0,1.707-.707l1.17139-1.1709a.42891.42891,0,0,1,.70752.292V33.293a.41392.41392,0,0,1-.166.33105L50.9668,35.77539A2.42312,2.42312,0,0,0,50,37.707V40.4104A13.94284,13.94284,0,0,1,46,41C45.66248,41,45.33167,40.973,45,40.94934ZM51,45H49V42.70813a15.84718,15.84718,0,0,0,2-.51941Zm1-5.37006V37.707a.41392.41392,0,0,1,.166-.33105l2.86718-2.15137A2.42312,2.42312,0,0,0,56,33.293V31.41406a2.4141,2.4141,0,0,0-4.12109-1.707l-1.17139,1.1709A.416.416,0,0,1,50.41406,31H45.75684a.41467.41467,0,0,1-.34473-.18457l-2.937-4.40527a.41537.41537,0,0,1,.05176-.52246l4.76562-4.76563A.416.416,0,0,1,47.58594,21h3.65722a.41467.41467,0,0,1,.34473.18457l1.16016,1.74023A2.40956,2.40956,0,0,0,54.75684,24h4.91131A13.93354,13.93354,0,0,1,52,39.62994Z"/><path d="M20,52a3,3,0,1,0,3,3A3.00328,3.00328,0,0,0,20,52Zm0,4a1,1,0,1,1,1-1A1.001,1.001,0,0,1,20,56Z"/><rect x="10" y="54" width="4" height="2"/><rect x="26" y="54" width="4" height="2"/><circle cx="7" cy="40" r="1"/><circle cx="21" cy="14" r="1"/><circle cx="25" cy="14" r="1"/><path d="M9,19a3,3,0,1,0-3-3A3.00328,3.00328,0,0,0,9,19Zm0-4a1,1,0,1,1-1,1A1.001,1.001,0,0,1,9,15Z"/><rect x="15" y="17" width="2" height="2"/><rect x="19" y="17" width="7" height="2"/><rect x="19" y="39" width="2" height="2"/><rect x="23" y="39" width="3" height="2"/><path d="M26,24a3.00328,3.00328,0,0,0-3-3H9a3.00328,3.00328,0,0,0-3,3V34a3.00328,3.00328,0,0,0,3,3H23a3.00328,3.00328,0,0,0,3-3ZM24,34a1.001,1.001,0,0,1-1,1H9a1.001,1.001,0,0,1-1-1V24a1.001,1.001,0,0,1,1-1H23a1.001,1.001,0,0,1,1,1Z"/></svg>
