<svg xmlns="http://www.w3.org/2000/svg" width="60.021" height="60.006" viewBox="0 0 60.021 60.006">
  <g id="Cloud_server" data-name="Cloud server" transform="translate(-1.979 -1.993)">
    <path id="Path_17" data-name="Path 17" d="M11,35V33A7,7,0,0,1,9.275,19.21h.016a7.089,7.089,0,0,1,5.044.635l.955-1.758a9.128,9.128,0,0,0-5.065-1.044A9.038,9.038,0,0,1,19,10a8.774,8.774,0,0,1,3.809.853h.007A9.024,9.024,0,0,1,27.955,18.1l1.99-.2a11.021,11.021,0,0,0-5.526-8.44,7.992,7.992,0,0,1,15.57,2.315,11.076,11.076,0,0,0-3.719,2.4l1.4,1.424a9.035,9.035,0,0,1,3.616-2.182h0a9,9,0,0,1,11.671,7.914,6.974,6.974,0,0,0-3.181,2.011l1.492,1.332a4.991,4.991,0,0,1,2.886-1.593h.024A4.515,4.515,0,0,1,55,23a5,5,0,1,1,0,10H53v2h2a7,7,0,1,0,0-14h-.045a11.014,11.014,0,0,0-12.988-9.813A10,10,0,0,0,22.593,8.6,10.786,10.786,0,0,0,19,8,11.049,11.049,0,0,0,8.107,17.471,9,9,0,0,0,11,35Z" fill="#fff"/>
    <rect id="Rectangle_6" data-name="Rectangle 6" width="2" height="2" transform="translate(12 33)" fill="#fff"/>
    <rect id="Rectangle_7" data-name="Rectangle 7" width="2" height="2" transform="translate(50 33)" fill="#fff"/>
    <path id="Path_18" data-name="Path 18" d="M33,54.142V51H46a3,3,0,0,0,3-3V22a3,3,0,0,0-3-3H18a3,3,0,0,0-3,3V48a3,3,0,0,0,3,3H31v3.142A4,4,0,0,0,28.142,57H2v2H28.142a3.981,3.981,0,0,0,7.716,0H62V57H35.858A4,4,0,0,0,33,54.142ZM17,22a1,1,0,0,1,1-1H46a1,1,0,0,1,1,1v7H17Zm0,9H47v8H17Zm0,17V41H47v7a1,1,0,0,1-1,1H18A1,1,0,0,1,17,48ZM32,60a2,2,0,1,1,2-2A2,2,0,0,1,32,60Z" fill="#fff"/>
    <path id="Path_19" data-name="Path 19" d="M34,28H46V22H34Zm2-4h8v2H36Z" fill="#fff"/>
    <path id="Path_20" data-name="Path 20" d="M34,38H46V32H34Zm2-4h8v2H36Z" fill="#fff"/>
    <path id="Path_21" data-name="Path 21" d="M46,42H34v6H46Zm-2,4H36V44h8Z" fill="#fff"/>
    <rect id="Rectangle_8" data-name="Rectangle 8" width="2" height="2" transform="translate(19 22)" fill="#fff"/>
    <rect id="Rectangle_9" data-name="Rectangle 9" width="2" height="2" transform="translate(19 26)" fill="#fff"/>
    <rect id="Rectangle_10" data-name="Rectangle 10" width="2" height="2" transform="translate(22 22)" fill="#fff"/>
    <rect id="Rectangle_11" data-name="Rectangle 11" width="2" height="2" transform="translate(22 26)" fill="#fff"/>
    <rect id="Rectangle_12" data-name="Rectangle 12" width="2" height="2" transform="translate(25 22)" fill="#fff"/>
    <rect id="Rectangle_13" data-name="Rectangle 13" width="2" height="2" transform="translate(25 26)" fill="#fff"/>
    <rect id="Rectangle_14" data-name="Rectangle 14" width="2" height="2" transform="translate(28 22)" fill="#fff"/>
    <rect id="Rectangle_15" data-name="Rectangle 15" width="2" height="2" transform="translate(28 26)" fill="#fff"/>
    <rect id="Rectangle_16" data-name="Rectangle 16" width="2" height="2" transform="translate(19 32)" fill="#fff"/>
    <rect id="Rectangle_17" data-name="Rectangle 17" width="2" height="2" transform="translate(19 36)" fill="#fff"/>
    <rect id="Rectangle_18" data-name="Rectangle 18" width="2" height="2" transform="translate(22 32)" fill="#fff"/>
    <rect id="Rectangle_19" data-name="Rectangle 19" width="2" height="2" transform="translate(22 36)" fill="#fff"/>
    <rect id="Rectangle_20" data-name="Rectangle 20" width="2" height="2" transform="translate(25 32)" fill="#fff"/>
    <rect id="Rectangle_21" data-name="Rectangle 21" width="2" height="2" transform="translate(25 36)" fill="#fff"/>
    <rect id="Rectangle_22" data-name="Rectangle 22" width="2" height="2" transform="translate(28 32)" fill="#fff"/>
    <rect id="Rectangle_23" data-name="Rectangle 23" width="2" height="2" transform="translate(28 36)" fill="#fff"/>
    <rect id="Rectangle_24" data-name="Rectangle 24" width="2" height="2" transform="translate(19 42)" fill="#fff"/>
    <rect id="Rectangle_25" data-name="Rectangle 25" width="2" height="2" transform="translate(19 46)" fill="#fff"/>
    <rect id="Rectangle_26" data-name="Rectangle 26" width="2" height="2" transform="translate(22 42)" fill="#fff"/>
    <rect id="Rectangle_27" data-name="Rectangle 27" width="2" height="2" transform="translate(22 46)" fill="#fff"/>
    <rect id="Rectangle_28" data-name="Rectangle 28" width="2" height="2" transform="translate(25 42)" fill="#fff"/>
    <rect id="Rectangle_29" data-name="Rectangle 29" width="2" height="2" transform="translate(25 46)" fill="#fff"/>
    <rect id="Rectangle_30" data-name="Rectangle 30" width="2" height="2" transform="translate(28 42)" fill="#fff"/>
    <rect id="Rectangle_31" data-name="Rectangle 31" width="2" height="2" transform="translate(28 46)" fill="#fff"/>
  </g>
</svg>
