<svg xmlns="http://www.w3.org/2000/svg" width="89" height="77.875" viewBox="0 0 89 77.875">
  <path id="Icon_awesome-quote-left" data-name="Icon awesome-quote-left" d="M8.344,41.187H22.25V52.312A11.135,11.135,0,0,1,11.125,63.437H9.734a4.162,4.162,0,0,0-4.172,4.172v8.344a4.162,4.162,0,0,0,4.172,4.172h1.391A27.8,27.8,0,0,0,38.938,52.312V10.594A8.346,8.346,0,0,0,30.594,2.25H8.344A8.346,8.346,0,0,0,0,10.594v22.25A8.346,8.346,0,0,0,8.344,41.187Zm50.063,0H72.313V52.312A11.135,11.135,0,0,1,61.188,63.437H59.8a4.162,4.162,0,0,0-4.172,4.172v8.344A4.162,4.162,0,0,0,59.8,80.125h1.391A27.8,27.8,0,0,0,89,52.312V10.594A8.346,8.346,0,0,0,80.656,2.25H58.406a8.346,8.346,0,0,0-8.344,8.344v22.25A8.346,8.346,0,0,0,58.406,41.187Z" transform="translate(0 -2.25)" fill="#99ca3d" opacity="0.24" style="mix-blend-mode: multiply;isolation: isolate"/>
</svg>
