<svg xmlns="http://www.w3.org/2000/svg" width="59.34" height="64.313" viewBox="0 0 59.34 64.313">
  <g id="hosting" transform="translate(-18.772)">
    <g id="Group_95" data-name="Group 95" transform="translate(18.772 41.327)">
      <g id="Group_94" data-name="Group 94">
        <path id="Path_241" data-name="Path 241" d="M76.878,315.388a3.469,3.469,0,0,0-2.823-.762L53.042,318.28l-5.969-5.969a1.057,1.057,0,0,0-.749-.31H19.832a1.06,1.06,0,0,0-1.06,1.06v16.955a1.06,1.06,0,0,0,1.06,1.06H34.667a1.06,1.06,0,0,0,1.06-1.06v-1.06h2.929l11.329,5.665a3.455,3.455,0,0,0,3.293-.106l23.116-13.484a3.462,3.462,0,0,0,.484-5.642ZM29.369,328.955H20.891V314.119h8.477Zm4.239,0H31.488V314.119h2.119Zm41.72-9.756L52.211,332.683a1.349,1.349,0,0,1-1.279.041l-11.552-5.776a1.049,1.049,0,0,0-.474-.112H35.727V314.119H45.885l8.348,8.348a1.938,1.938,0,1,1-2.74,2.74l-5.48-5.48-1.5,1.5,5.48,5.48a4.057,4.057,0,1,0,5.737-5.737l-.857-.857,19.546-3.4a1.345,1.345,0,0,1,.908,2.486Z" transform="translate(-18.772 -312)" fill="#fff"/>
      </g>
    </g>
    <g id="Group_97" data-name="Group 97" transform="translate(33.607)">
      <g id="Group_96" data-name="Group 96">
        <path id="Path_242" data-name="Path 242" d="M168.92,8.477A3.183,3.183,0,0,0,165.741,5.3H150.906V2.119h6.358V0H142.428V2.119h6.358V5.3H133.951a3.183,3.183,0,0,0-3.179,3.179v6.358a3.159,3.159,0,0,0,.827,2.119,3.153,3.153,0,0,0-.827,2.119v6.358a3.159,3.159,0,0,0,.827,2.119,3.153,3.153,0,0,0-.827,2.119v6.358a3.183,3.183,0,0,0,3.179,3.179h31.79a3.183,3.183,0,0,0,3.179-3.179V29.671a3.159,3.159,0,0,0-.827-2.119,3.153,3.153,0,0,0,.827-2.119V19.074a3.159,3.159,0,0,0-.827-2.119,3.153,3.153,0,0,0,.827-2.119ZM166.8,36.029a1.061,1.061,0,0,1-1.06,1.06h-31.79a1.061,1.061,0,0,1-1.06-1.06V29.671a1.061,1.061,0,0,1,1.06-1.06h31.79a1.061,1.061,0,0,1,1.06,1.06Zm0-10.6a1.061,1.061,0,0,1-1.06,1.06h-31.79a1.061,1.061,0,0,1-1.06-1.06V19.074a1.061,1.061,0,0,1,1.06-1.06h31.79a1.061,1.061,0,0,1,1.06,1.06Zm0-10.6a1.061,1.061,0,0,1-1.06,1.06h-31.79a1.061,1.061,0,0,1-1.06-1.06V8.477a1.061,1.061,0,0,1,1.06-1.06h31.79a1.061,1.061,0,0,1,1.06,1.06Z" transform="translate(-130.772)" fill="#fff"/>
      </g>
    </g>
    <g id="Group_99" data-name="Group 99" transform="translate(65.492 10.663)">
      <g id="Group_98" data-name="Group 98" transform="translate(0 0)">
        <rect id="Rectangle_204" data-name="Rectangle 204" width="2" height="2" transform="translate(-0.372 0.337)" fill="#fff"/>
      </g>
    </g>
    <g id="Group_101" data-name="Group 101" transform="translate(37.855 10.663)">
      <g id="Group_100" data-name="Group 100" transform="translate(0 0)">
        <rect id="Rectangle_205" data-name="Rectangle 205" width="15" height="2" transform="translate(0.265 0.337)" fill="#fff"/>
      </g>
    </g>
    <g id="Group_103" data-name="Group 103" transform="translate(65.492 21.109)">
      <g id="Group_102" data-name="Group 102" transform="translate(0 0)">
        <rect id="Rectangle_206" data-name="Rectangle 206" width="2" height="2" transform="translate(-0.372 -0.109)" fill="#fff"/>
      </g>
    </g>
    <g id="Group_105" data-name="Group 105" transform="translate(37.855 21.109)">
      <g id="Group_104" data-name="Group 104" transform="translate(0 0)">
        <rect id="Rectangle_207" data-name="Rectangle 207" width="15" height="2" transform="translate(0.265 -0.109)" fill="#fff"/>
      </g>
    </g>
    <g id="Group_107" data-name="Group 107" transform="translate(65.492 31.772)">
      <g id="Group_106" data-name="Group 106" transform="translate(0 0)">
        <rect id="Rectangle_208" data-name="Rectangle 208" width="2" height="2" transform="translate(-0.372 0.228)" fill="#fff"/>
      </g>
    </g>
    <g id="Group_109" data-name="Group 109" transform="translate(37.855 31.772)">
      <g id="Group_108" data-name="Group 108" transform="translate(0 0)">
        <rect id="Rectangle_209" data-name="Rectangle 209" width="15" height="2" transform="translate(0.265 0.228)" fill="#fff"/>
      </g>
    </g>
    <g id="Group_111" data-name="Group 111" transform="translate(62.228)">
      <g id="Group_110" data-name="Group 110" transform="translate(0)">
        <rect id="Rectangle_210" data-name="Rectangle 210" width="2" height="2" transform="translate(-0.108)" fill="#fff"/>
      </g>
    </g>
    <g id="Group_113" data-name="Group 113" transform="translate(66.363)">
      <g id="Group_112" data-name="Group 112" transform="translate(0)">
        <rect id="Rectangle_211" data-name="Rectangle 211" width="2" height="2" transform="translate(-0.243)" fill="#fff"/>
      </g>
    </g>
    <g id="Group_115" data-name="Group 115" transform="translate(70.715)">
      <g id="Group_114" data-name="Group 114" transform="translate(0)">
        <rect id="Rectangle_212" data-name="Rectangle 212" width="2" height="2" transform="translate(0.405)" fill="#fff"/>
      </g>
    </g>
    <g id="Group_117" data-name="Group 117" transform="translate(32.632)">
      <g id="Group_116" data-name="Group 116" transform="translate(0)">
        <rect id="Rectangle_213" data-name="Rectangle 213" width="1" height="2" transform="translate(0.487)" fill="#fff"/>
      </g>
    </g>
    <g id="Group_119" data-name="Group 119" transform="translate(36.767)">
      <g id="Group_118" data-name="Group 118" transform="translate(0)">
        <rect id="Rectangle_214" data-name="Rectangle 214" width="2" height="2" transform="translate(0.353)" fill="#fff"/>
      </g>
    </g>
    <g id="Group_121" data-name="Group 121" transform="translate(41.119)">
      <g id="Group_120" data-name="Group 120" transform="translate(0)">
        <rect id="Rectangle_215" data-name="Rectangle 215" width="2" height="2" transform="translate(0)" fill="#fff"/>
      </g>
    </g>
  </g>
</svg>
