<svg xmlns="http://www.w3.org/2000/svg" width="60" height="62" viewBox="0 0 60 62">
  <g id="deep-learning" transform="translate(-2 -1)">
    <path id="Path_236" data-name="Path 236" d="M42,18a1,1,0,0,0,.707-.293L54.414,6h1.77a3,3,0,1,0,0-2H54a1,1,0,0,0-.707.293L41.586,16H40V15a3,3,0,0,0-6,0v3H28.9A5.009,5.009,0,0,0,24,14a4.957,4.957,0,0,0-3.262,1.242L11.482,8.174A4.941,4.941,0,0,0,12,6a5.059,5.059,0,1,0-1.738,3.758l9.256,7.068A4.931,4.931,0,0,0,19.1,18H11.9A5,5,0,1,0,7,24a4.957,4.957,0,0,0,3.262-1.242l3.59,2.742-3.59,2.742a5,5,0,1,0,0,7.516l3.59,2.742-3.59,2.742A4.99,4.99,0,1,0,7,50a5.009,5.009,0,0,0,4.9-4h7.2a4.931,4.931,0,0,0,.417,1.173l-9.256,7.068A4.979,4.979,0,1,0,12,58a4.934,4.934,0,0,0-.518-2.173l9.256-7.068A4.971,4.971,0,0,0,28.9,46H34v2a3,3,0,0,0,6,0h1.586L53.293,59.707A1,1,0,0,0,54,60h2.184a3,3,0,1,0,0-2h-1.77L42.707,46.293A1,1,0,0,0,42,46H40V43h4.586l7.707,7.707A1,1,0,0,0,53,51h3.184a3,3,0,1,0,0-2h-2.77l-7.707-7.707A1,1,0,0,0,45,41H40V38h8.586l3.707,3.707A1,1,0,0,0,53,42h3.184a3,3,0,1,0,0-2h-2.77l-3.707-3.707A1,1,0,0,0,49,36H40V33H56.184a3,3,0,1,0,0-2H40V28h9a1,1,0,0,0,.707-.293L53.414,24h2.77a3,3,0,1,0,0-2H53a1,1,0,0,0-.707.293L48.586,26H40V23h5a1,1,0,0,0,.707-.293L53.414,15h2.77a3,3,0,1,0,0-2H53a1,1,0,0,0-.707.293L44.586,21H40V18ZM59,4a1,1,0,1,1-1,1A1,1,0,0,1,59,4Zm0,54a1,1,0,1,1-1,1A1,1,0,0,1,59,58Zm0-9a1,1,0,1,1-1,1A1,1,0,0,1,59,49Zm0-9a1,1,0,1,1-1,1A1,1,0,0,1,59,40Zm0-9a1,1,0,1,1-1,1A1,1,0,0,1,59,31Zm0-9a1,1,0,1,1-1,1A1,1,0,0,1,59,22Zm0-9a1,1,0,1,1-1,1A1,1,0,0,1,59,13ZM28.9,20H34V31H28.9A5.009,5.009,0,0,0,24,27a4.957,4.957,0,0,0-3.262,1.242L17.148,25.5l3.59-2.742A4.957,4.957,0,0,0,24,24,5.009,5.009,0,0,0,28.9,20ZM21,32a3,3,0,1,1,3,3A3,3,0,0,1,21,32Zm3-16a3,3,0,1,1-3,3A3,3,0,0,1,24,16ZM7,9a3,3,0,1,1,3-3A3,3,0,0,1,7,9ZM7,22a3,3,0,1,1,3-3A3,3,0,0,1,7,22Zm4.482-.827A4.931,4.931,0,0,0,11.9,20h7.2a4.931,4.931,0,0,0,.417,1.173L15.5,24.242Zm8.036,8.654A4.931,4.931,0,0,0,19.1,31H11.9a4.931,4.931,0,0,0-.417-1.173L15.5,26.759ZM7,35a3,3,0,1,1,3-3A3,3,0,0,1,7,35Zm4.482-.827A4.931,4.931,0,0,0,11.9,33h7.2a4.931,4.931,0,0,0,.417,1.173L15.5,37.242ZM19.1,44H11.9a4.931,4.931,0,0,0-.417-1.173L15.5,39.759l4.018,3.068A4.931,4.931,0,0,0,19.1,44ZM7,48a3,3,0,1,1,3-3A3,3,0,0,1,7,48ZM7,61a3,3,0,1,1,3-3A3,3,0,0,1,7,61ZM24,48a3,3,0,1,1,3-3A3,3,0,0,1,24,48Zm4.9-4A5.009,5.009,0,0,0,24,40a4.957,4.957,0,0,0-3.262,1.242L17.148,38.5l3.59-2.742A4.957,4.957,0,0,0,24,37a5.009,5.009,0,0,0,4.9-4H34V44ZM38,48a1,1,0,0,1-2,0V15a1,1,0,0,1,2,0Z" fill="#fff"/>
    <path id="Path_237" data-name="Path 237" d="M30,23h2v2H30Z" fill="#fff"/>
    <path id="Path_238" data-name="Path 238" d="M30,27h2v2H30Z" fill="#fff"/>
    <path id="Path_239" data-name="Path 239" d="M30,35h2v2H30Z" fill="#fff"/>
    <path id="Path_240" data-name="Path 240" d="M30,39h2v2H30Z" fill="#fff"/>
  </g>
</svg>
