<svg id="cyber" xmlns="http://www.w3.org/2000/svg" width="58.065" height="60.129" viewBox="0 0 58.065 60.129">
  <path id="Path_228" data-name="Path 228" d="M76.748,36.158v-4.21a1.579,1.579,0,0,0-.6-1.241l-6.909-5.5V15.032a1.967,1.967,0,0,0-1.947-1.961l-1.768-.013V11.823L74.08,3.268a1.66,1.66,0,1,0-1.246-1.246l-8.606,8.606a1.576,1.576,0,0,0-.465,1.122v1.274a27.806,27.806,0,0,1-3.078-.3V8.514l5.246-5.246a1.66,1.66,0,1,0-1.246-1.246l-5.3,5.3a1.576,1.576,0,0,0-.464,1.122v3.945a17.927,17.927,0,0,1-3.41-1.155V3.054a1.655,1.655,0,1,0-1.763,0v7.2a9.566,9.566,0,0,1-1.489-1.194,12.79,12.79,0,0,1-1.218-1.412A2.835,2.835,0,0,0,48.755,6.5h-.007a2.845,2.845,0,0,0-2.295,1.147A13.354,13.354,0,0,1,45.22,9.062a10.158,10.158,0,0,1-1.859,1.445V3.054a1.655,1.655,0,1,0-1.763,0v8.365a18.362,18.362,0,0,1-3.542,1.094V8.441a1.577,1.577,0,0,0-.465-1.122l-5.3-5.3a1.66,1.66,0,1,0-1.246,1.246l5.246,5.246v4.294a29.521,29.521,0,0,1-3.078.235V11.749a1.576,1.576,0,0,0-.465-1.122L24.145,2.022A1.66,1.66,0,1,0,22.9,3.268l8.555,8.555v1.239l-1.265.009a1.967,1.967,0,0,0-1.947,1.961V16.21a.881.881,0,1,0,1.763,0V15.032a.2.2,0,0,1,.2-.2l2.388-.017a24.213,24.213,0,0,0,10.2-2.008.886.886,0,0,0,.14-.068,12.839,12.839,0,0,0,3.535-2.432,15.118,15.118,0,0,0,1.4-1.606,1.1,1.1,0,0,1,.885-.443h0a1.087,1.087,0,0,1,.878.442,14.572,14.572,0,0,0,1.386,1.607c1.335,1.335,5.359,4.446,13.878,4.508l2.388.017a.2.2,0,0,1,.2.2V28.149a21.575,21.575,0,0,1-2.187,9.436c-.307.626-.65,1.247-1.02,1.844a.881.881,0,1,0,1.5.928c.4-.646.772-1.318,1.1-2a23.172,23.172,0,0,0,1.506-3.971l1.9,1.434V48.267a1.655,1.655,0,1,0,1.763,0V35.736a1.6,1.6,0,0,0-.63-1.266l-2.59-1.957a23.181,23.181,0,0,0,.419-4.365v-.691l5.745,4.576v4.125a1.655,1.655,0,1,0,1.763,0Z" transform="translate(-19.457 0)" fill="#015466"/>
  <path id="Path_229" data-name="Path 229" d="M53.121,201.756v-8.268a1.577,1.577,0,0,0-.465-1.122l-2.042-2.042a23.337,23.337,0,0,0,2.27-2.277.881.881,0,0,0-1.332-1.155,21.46,21.46,0,0,1-3.046,2.888l-7.856,6.1a4.231,4.231,0,0,1-2.581.885,4.174,4.174,0,0,1-2.581-.885l-7.856-6.1a21.456,21.456,0,0,1-8.3-16.949v-8.015a.881.881,0,1,0-1.763,0v4.671l-7.412,5.9a1.578,1.578,0,0,0-.6,1.241v4.21a1.654,1.654,0,0,0,.881,3.054,1.622,1.622,0,0,0,1.616-1.655,1.656,1.656,0,0,0-.735-1.392v-4.132l6.247-4.976v1.091a23.149,23.149,0,0,0,.357,4.032l-3.03,2.29a1.6,1.6,0,0,0-.629,1.265v12.531A1.654,1.654,0,0,0,15.149,196a1.622,1.622,0,0,0,1.616-1.655,1.656,1.656,0,0,0-.735-1.392v-12.45l2.313-1.748a23.122,23.122,0,0,0,6.917,11.33l-2.279,2.279a1.576,1.576,0,0,0-.465,1.122v8.268a1.655,1.655,0,1,0,1.763,0v-8.195l2.338-2.338,7.791,6.047a5.97,5.97,0,0,0,7.323,0l7.508-5.827,2.119,2.119v8.195a1.655,1.655,0,1,0,1.762,0Z" transform="translate(-8.786 -144.682)" fill="#015466"/>
  <ellipse id="Ellipse_11" data-name="Ellipse 11" cx="1.01" cy="1.01" rx="1.01" ry="1.01" transform="translate(28.274 48.656)" fill="#99ca3d"/>
  <path id="Path_230" data-name="Path 230" d="M251.559,91.391a1.01,1.01,0,1,0-1.01,1.01A1.01,1.01,0,0,0,251.559,91.391Z" transform="translate(-221.266 -79.767)" fill="#015466"/>
  <ellipse id="Ellipse_12" data-name="Ellipse 12" cx="1.01" cy="1.01" rx="1.01" ry="1.01" transform="translate(44.483 16.563)" fill="#99ca3d"/>
  <ellipse id="Ellipse_13" data-name="Ellipse 13" cx="1.01" cy="1.01" rx="1.01" ry="1.01" transform="translate(11.944 16.563)" fill="#99ca3d"/>
  <path id="Path_231" data-name="Path 231" d="M175.679,156.263a.881.881,0,0,0-.881.881v3.93A2.933,2.933,0,0,0,177.727,164h13.716a2.933,2.933,0,0,0,2.929-2.929v-8.936a2.934,2.934,0,0,0-1.813-2.708v-3.286a8.228,8.228,0,0,0-16.457,0V149.7a2.929,2.929,0,0,0-1.305,2.437v.825a.881.881,0,0,0,1.763,0v-.825a1.168,1.168,0,0,1,1.167-1.167h13.716a1.168,1.168,0,0,1,1.167,1.167v8.936a1.168,1.168,0,0,1-1.167,1.167H177.727a1.168,1.168,0,0,1-1.167-1.167v-3.93a.881.881,0,0,0-.881-.881Zm8.652-16.584a6.473,6.473,0,0,1,6.466,6.466v3.065H189.22v-3.065a4.888,4.888,0,1,0-9.777,0v3.065h-1.578v-3.065A6.473,6.473,0,0,1,184.332,139.68Zm3.126,9.531h-6.251v-3.065a3.126,3.126,0,0,1,6.251,0Z" transform="translate(-155.302 -121.72)" fill="#99ca3d"/>
  <path id="Path_232" data-name="Path 232" d="M243.879,281.482h1.008a.232.232,0,0,0,.232-.232v-1.745a.156.156,0,0,1,.088-.142,1.947,1.947,0,1,0-1.65,0,.155.155,0,0,1,.091.139v1.748a.232.232,0,0,0,.232.232Z" transform="translate(-214.996 -243.28)" fill="#015466"/>
</svg>
