<svg id="twenty-four-hours" xmlns="http://www.w3.org/2000/svg" width="55.676" height="59.346" viewBox="0 0 55.676 59.346">
  <path id="Path_222" data-name="Path 222" d="M195.06,155.219a3.4,3.4,0,0,1,3.635,3.294c0,3.505-5.144,4.641-5.144,6.329v.389h4.511c.357,0,.665.422.665.909s-.308.941-.665.941h-5.777c-.373,0-.925-.26-.925-.665v-1.574c0-2.6,5.225-3.976,5.225-6.264a1.41,1.41,0,0,0-1.509-1.444,1.316,1.316,0,0,0-1.444,1.428c0,.389-.406.779-1.1.779-.552,0-.957-.26-.957-1.136C191.571,156.355,193.259,155.219,195.06,155.219Z" transform="translate(-171.014 -137.228)" fill="#99ca3d"/>
  <path id="Path_223" data-name="Path 223" d="M259.81,164.5h-3.895a.69.69,0,0,1-.714-.746.869.869,0,0,1,.114-.422l3.846-7.562a.946.946,0,0,1,.893-.552c.373,0,1.055.325,1.055.811a.658.658,0,0,1-.081.276l-3.116,6.231h1.9v-1.7c0-.471.536-.665,1.055-.665.535,0,1.055.195,1.055.665v1.7h.763c.438,0,.665.487.665.99,0,.487-.325.974-.665.974h-.763v1.915c0,.438-.519.665-1.055.665-.519,0-1.055-.227-1.055-.665Z" transform="translate(-227.456 -137.228)" fill="#99ca3d"/>
  <path id="Path_224" data-name="Path 224" d="M231.733,308.608a3.329,3.329,0,0,1-.406,1.233l-4.105,7.887a.628.628,0,0,1-.6.308c-.665,0-1.331-.454-1.331-1.055a.646.646,0,0,1,.1-.373l4.235-7.594v-1.071h-3.392v1.314c0,.389-.519.682-1.071.682-.568,0-1.039-.292-1.039-.682v-2.5c0-.325.454-.665.925-.665h5.761c.406,0,.925.341.925.665v1.85Z" transform="translate(-199.979 -270.614)" fill="#99ca3d"/>
  <path id="Path_225" data-name="Path 225" d="M159,8.912l7.163,4.135A2.557,2.557,0,0,0,170,10.832V9.785a21.7,21.7,0,0,1,13.891,37.541.869.869,0,1,0,1.187,1.27A23.447,23.447,0,0,0,169.136,8.027a.858.858,0,0,0-.616.254.869.869,0,0,0-.255.616v1.937a.818.818,0,0,1-1.228.709l-7.163-4.135a.818.818,0,0,1,0-1.418l7.163-4.135a.794.794,0,0,1,.42-.112.816.816,0,0,1,.807.821V4.443a.869.869,0,0,0,.867.869,25.869,25.869,0,0,1,11.781,2.83.869.869,0,0,0,.789-1.549,27.548,27.548,0,0,0-11.7-3V2.562A2.554,2.554,0,0,0,166.167.348L159,4.483a2.557,2.557,0,0,0,0,4.429Z" transform="translate(-141.279 -0.002)" fill="#015466"/>
  <path id="Path_226" data-name="Path 226" d="M59.516,72.5a.869.869,0,0,0-.992,1.428,26.15,26.15,0,1,1-40.948,23.84,1.319,1.319,0,0,1,.346-1.018,1.359,1.359,0,0,1,2.36.81,23.461,23.461,0,0,0,36.909,16.985.869.869,0,1,0-1.006-1.418A21.713,21.713,0,0,1,22.014,97.407a3.1,3.1,0,1,0-6.17.52A27.889,27.889,0,1,0,59.516,72.5Z" transform="translate(-15.833 -63.963)" fill="#015466"/>
  <path id="Path_227" data-name="Path 227" d="M171.148,275.969a.869.869,0,1,0,0,1.739h18.273a.869.869,0,0,0,0-1.739Z" transform="translate(-152.377 -243.981)" fill="#015466"/>
</svg>
