<svg id="chip" xmlns="http://www.w3.org/2000/svg" width="65.213" height="65.213" viewBox="0 0 65.213 65.213">
  <g id="Group_89" data-name="Group 89" transform="translate(12.254 0)">
    <g id="Group_88" data-name="Group 88">
      <path id="Path_198" data-name="Path 198" d="M148.21,31.652H132.829V29.479h4.15a.955.955,0,0,0,0-1.911h-4.15V25.395h2.881a3.992,3.992,0,0,0,2.841-1.177l6.283-6.283a3,3,0,1,0-1.351-1.351L137.2,22.867a2.094,2.094,0,0,1-1.49.617h-2.881V21.376a5.045,5.045,0,0,0-5.039-5.039h-2.108V7.881a3,3,0,1,0-1.911,0v8.457H121.6v-4.15a.955.955,0,1,0-1.911,0v4.15h-2.174V.956a.955.955,0,1,0-1.911,0V16.337H113.43v-4.15a.955.955,0,1,0-1.911,0v4.15h-2.173V13.456a3.992,3.992,0,0,0-1.177-2.841L101.884,4.33a3,3,0,1,0-1.351,1.351l6.285,6.285a2.094,2.094,0,0,1,.617,1.49v2.881h-2.108a5.061,5.061,0,0,0-1.259.159.955.955,0,0,0,.476,1.85,3.146,3.146,0,0,1,.783-.1H127.79a3.132,3.132,0,0,1,3.129,3.129V43.838a3.147,3.147,0,0,1-.1.782.955.955,0,1,0,1.85.476,5.055,5.055,0,0,0,.159-1.258V41.731h8.456a3,3,0,1,0,0-1.911h-8.456V37.647h4.15a.955.955,0,1,0,0-1.911h-4.15V33.563H148.21a.955.955,0,1,0,0-1.911Zm-2.81-17.17a1.087,1.087,0,1,1-.318.768A1.079,1.079,0,0,1,145.4,14.482ZM99.97,3.767a1.086,1.086,0,1,1,0-1.537A1.088,1.088,0,0,1,99.97,3.767Zm24.757,2.36a1.087,1.087,0,1,1,1.087-1.087A1.088,1.088,0,0,1,124.727,6.127Zm19.4,33.562a1.087,1.087,0,1,1-1.087,1.087A1.088,1.088,0,0,1,144.126,39.689Z" transform="translate(-96.206 -0.001)" fill="#015466"/>
    </g>
  </g>
  <g id="Group_91" data-name="Group 91" transform="translate(0 19.399)">
    <g id="Group_90" data-name="Group 90">
      <path id="Path_199" data-name="Path 199" d="M52.083,193a3,3,0,0,0-3.451-.563l-6.285-6.285a2.093,2.093,0,0,1-.617-1.49v-2.881h2.108a5.057,5.057,0,0,0,1.259-.159.955.955,0,1,0-.476-1.85,3.145,3.145,0,0,1-.783.1H21.375a3.132,3.132,0,0,1-3.129-3.129V154.283a3.142,3.142,0,0,1,.1-.783.955.955,0,1,0-1.85-.476,5.05,5.05,0,0,0-.159,1.259v2.108H7.88a3,3,0,1,0,0,1.911h8.457v2.174h-4.15a.955.955,0,1,0,0,1.911h4.15v2.173H.955a.955.955,0,0,0,0,1.911H16.336v2.173h-4.15a.955.955,0,1,0,0,1.911h4.15v2.174H13.455a3.992,3.992,0,0,0-2.841,1.177l-6.283,6.283a2.995,2.995,0,1,0,1.351,1.351l6.283-6.283a2.094,2.094,0,0,1,1.49-.617h2.881v2.108a5.045,5.045,0,0,0,5.039,5.039h2.108v8.457a3,3,0,1,0,1.911,0v-8.457h2.173v4.15a.955.955,0,0,0,1.911,0v-4.15h2.173v15.381a.955.955,0,0,0,1.911,0V181.784h2.173v4.15a.955.955,0,0,0,1.911,0v-4.15h2.173v2.881A3.992,3.992,0,0,0,41,187.506l6.285,6.285a3,3,0,1,0,4.8-.788ZM5.039,158.432a1.087,1.087,0,1,1,1.087-1.087A1.088,1.088,0,0,1,5.039,158.432ZM3.766,183.639a1.087,1.087,0,1,1,.318-.768A1.079,1.079,0,0,1,3.766,183.639Zm21.759,9.442a1.087,1.087,0,1,1-1.087-1.087A1.088,1.088,0,0,1,25.525,193.081Zm25.207,2.81a1.086,1.086,0,1,1,0-1.537A1.088,1.088,0,0,1,50.732,195.891Z" transform="translate(0 -152.306)" fill="#015466"/>
    </g>
  </g>
  <g id="Group_93" data-name="Group 93" transform="translate(22.462 21.441)">
    <g id="Group_92" data-name="Group 92">
      <path id="Path_200" data-name="Path 200" d="M196.645,176.953a4.614,4.614,0,0,0-3.54-4.336,3.261,3.261,0,0,0,.094-.769,3.682,3.682,0,0,0-3.827-3.508,3.974,3.974,0,0,0-2.872,1.193,3.974,3.974,0,0,0-2.872-1.193,3.682,3.682,0,0,0-3.827,3.508,3.26,3.26,0,0,0,.094.769,4.614,4.614,0,0,0-3.54,4.336,4.2,4.2,0,0,0,1.006,2.718,4.724,4.724,0,0,0-1.006,2.9,4.92,4.92,0,0,0,2.3,4.082v0a4.228,4.228,0,0,0,4.4,4.018,4.558,4.558,0,0,0,3.446-1.523,4.558,4.558,0,0,0,3.446,1.523,4.257,4.257,0,0,0,4.392-3.77,4.465,4.465,0,0,0,2.306-3.821,4.306,4.306,0,0,0-1.328-3.063A4.307,4.307,0,0,0,196.645,176.953Zm-3.381,3.908a2.549,2.549,0,0,1,1.47,2.218,2.444,2.444,0,0,1-.842,1.8,4.288,4.288,0,0,0-2.511-2.022.955.955,0,0,0-.573,1.823,2.167,2.167,0,0,1,1.628,1.977,2.525,2.525,0,0,1-4.981,0v-6.126a2.326,2.326,0,0,1,2.491-2.108.955.955,0,1,0,0-1.911,4.67,4.67,0,0,0-2.491.708V176a.955.955,0,1,0-1.911,0v5.3a4.55,4.55,0,0,0-1.055-.489.955.955,0,0,0-.573,1.823,2.167,2.167,0,0,1,1.628,1.977v2.042a2.525,2.525,0,0,1-4.981,0,1.926,1.926,0,0,1,.595-1.363.955.955,0,1,0-1.347-1.355,4.063,4.063,0,0,0-.59.741,2.914,2.914,0,0,1-.955-2.106,3.253,3.253,0,0,1,2.7-3.024.955.955,0,1,0-.427-1.862,5.819,5.819,0,0,0-1.752.714,2.305,2.305,0,0,1-.521-1.444,2.868,2.868,0,0,1,3.042-2.618h.025a.954.954,0,0,0,.811-1.458c-.007-.012-.014-.024-.022-.035l-.013-.017c-.015-.021-.03-.041-.046-.061v0a1.418,1.418,0,0,1-.35-.916,1.948,1.948,0,0,1,3.833,0,.955.955,0,1,0,1.911,0,1.948,1.948,0,0,1,3.833,0,1.344,1.344,0,0,1-.143.6,5.3,5.3,0,0,0-1.568.393.955.955,0,1,0,.742,1.76,3.449,3.449,0,0,1,1.321-.267h.053a2.867,2.867,0,0,1,3.041,2.618,2.549,2.549,0,0,1-1.47,2.218.955.955,0,0,0,0,1.69Z" transform="translate(-176.357 -168.34)" fill="#99ca3d"/>
    </g>
  </g>
</svg>
