<svg id="medal_1_" data-name="medal (1)" xmlns="http://www.w3.org/2000/svg" width="49.065" height="64.712" viewBox="0 0 49.065 64.712">
  <g id="Group_71" data-name="Group 71" transform="translate(6.064 6.077)">
    <g id="Group_70" data-name="Group 70" transform="translate(0)">
      <path id="Path_189" data-name="Path 189" d="M136.607,50.068a18.428,18.428,0,0,0-22.863,27.749,1.02,1.02,0,0,0,1.61-1.253,16.389,16.389,0,0,1,20.333-24.676,1.02,1.02,0,1,0,.92-1.82Z" transform="translate(-109.878 -48.082)" fill="#015466"/>
    </g>
  </g>
  <g id="Group_73" data-name="Group 73" transform="translate(12.792 15.648)">
    <g id="Group_72" data-name="Group 72" transform="translate(0)">
      <path id="Path_190" data-name="Path 190" d="M191.253,124.367a1.02,1.02,0,0,0-1.821.919,16.389,16.389,0,0,1-24.677,20.33,1.02,1.02,0,1,0-1.253,1.61,18.428,18.428,0,0,0,27.751-22.859Z" transform="translate(-163.109 -123.806)" fill="#99ca3d"/>
    </g>
  </g>
  <g id="Group_75" data-name="Group 75" transform="translate(34.978 10.44)">
    <g id="Group_74" data-name="Group 74" transform="translate(0)">
      <path id="Path_191" data-name="Path 191" d="M341.97,84.489c-.253-.286-.518-.568-.789-.839s-.553-.536-.839-.789a1.02,1.02,0,0,0-1.351,1.528c.255.225.506.462.748.7s.478.493.7.747a1.02,1.02,0,0,0,1.528-1.351Z" transform="translate(-338.647 -82.605)" fill="#99ca3d"/>
    </g>
  </g>
  <g id="Group_77" data-name="Group 77" transform="translate(0 0)">
    <g id="Group_76" data-name="Group 76" transform="translate(0 0)">
      <path id="Path_192" data-name="Path 192" d="M110.453,26.341a3.461,3.461,0,0,0,0-3.617l-1.342-2.2a1.436,1.436,0,0,1-.192-.969l.4-2.541a3.459,3.459,0,0,0-1.388-3.349l-2.079-1.512a1.436,1.436,0,0,1-.55-.822l-.606-2.5a3.46,3.46,0,0,0-2.559-2.559l-2.5-.606a1.435,1.435,0,0,1-.822-.55L97.3,3.032A3.459,3.459,0,0,0,93.95,1.644l-2.542.4a1.436,1.436,0,0,1-.969-.192L88.239.51a3.46,3.46,0,0,0-3.617,0l-2.2,1.342a1.436,1.436,0,0,1-.969.192l-2.541-.4a3.459,3.459,0,0,0-3.349,1.388L74.05,5.111a1.436,1.436,0,0,1-.823.55l-2.5.606a3.46,3.46,0,0,0-2.559,2.559l-.606,2.5a1.434,1.434,0,0,1-.55.822l-2.08,1.513a3.459,3.459,0,0,0-1.388,3.349l.4,2.542a1.435,1.435,0,0,1-.192.969l-1.342,2.2a3.461,3.461,0,0,0,0,3.617l1.342,2.2a1.435,1.435,0,0,1,.192.969l-.4,2.541A3.459,3.459,0,0,0,64.93,35.4l2.079,1.512a1.435,1.435,0,0,1,.55.822l.606,2.5A3.46,3.46,0,0,0,70.724,42.8l1.045.253L64.7,58.825a1.02,1.02,0,0,0,1.052,1.43l5.69-.68,3.278,4.7a1.02,1.02,0,0,0,.836.436c.032,0,.064,0,.1,0a1.02,1.02,0,0,0,.835-.6L83.707,48l.915.558a3.46,3.46,0,0,0,3.617,0l.948-.578,7.232,16.132a1.02,1.02,0,0,0,.835.6c.032,0,.064,0,.1,0a1.02,1.02,0,0,0,.836-.436l3.278-4.7,5.69.68a1.02,1.02,0,0,0,1.052-1.43L101.13,43.041l1.006-.243a3.46,3.46,0,0,0,2.559-2.559l.606-2.5a1.435,1.435,0,0,1,.55-.822l2.08-1.513a3.459,3.459,0,0,0,1.388-3.349l-.4-2.542a1.435,1.435,0,0,1,.192-.969ZM75.36,61.631l-2.6-3.725a1.019,1.019,0,0,0-.958-.429l-4.509.539,6.443-14.373a1.426,1.426,0,0,1,.311.31l1.513,2.08a3.505,3.505,0,0,0,.481.536l-3.391,7.565a1.02,1.02,0,1,0,1.861.834l3.379-7.538a3.49,3.49,0,0,0,1.019-.009l2.542-.4a1.432,1.432,0,0,1,.456,0Zm30.248-3.616-4.51-.539a1.019,1.019,0,0,0-.958.429l-2.6,3.725L90.992,47.018a1.436,1.436,0,0,1,.416,0l2.541.4a3.493,3.493,0,0,0,1.059,0l3.382,7.544a1.02,1.02,0,1,0,1.861-.834l-3.4-7.594a3.51,3.51,0,0,0,.451-.507l1.512-2.079a1.432,1.432,0,0,1,.343-.334Zm3.1-32.737-1.342,2.2a3.478,3.478,0,0,0-.466,2.348l.4,2.542a1.428,1.428,0,0,1-.573,1.382l-2.08,1.513a3.478,3.478,0,0,0-1.333,1.992l-.606,2.5a1.429,1.429,0,0,1-1.056,1.056l-2.5.606a3.477,3.477,0,0,0-1.992,1.333l-1.512,2.079a1.427,1.427,0,0,1-1.383.573l-2.541-.4a3.478,3.478,0,0,0-2.348.466l-2.2,1.342a1.429,1.429,0,0,1-1.493,0l-2.2-1.342a3.476,3.476,0,0,0-2.348-.466l-2.542.4a1.428,1.428,0,0,1-1.382-.573L75.7,42.753a3.477,3.477,0,0,0-1.992-1.333l-2.5-.606a1.429,1.429,0,0,1-1.056-1.056l-.606-2.5a3.477,3.477,0,0,0-1.333-1.992L66.13,33.751a1.428,1.428,0,0,1-.573-1.383l.4-2.541a3.478,3.478,0,0,0-.466-2.348l-1.342-2.2a1.429,1.429,0,0,1,0-1.493l1.342-2.2a3.478,3.478,0,0,0,.466-2.348l-.4-2.542a1.428,1.428,0,0,1,.573-1.382L68.21,13.8a3.477,3.477,0,0,0,1.333-1.992l.606-2.5A1.429,1.429,0,0,1,71.2,8.249l2.5-.606A3.477,3.477,0,0,0,75.7,6.311l1.512-2.079a1.427,1.427,0,0,1,1.383-.573l2.541.4a3.476,3.476,0,0,0,2.348-.466l2.2-1.342a1.429,1.429,0,0,1,1.493,0l2.2,1.342a3.476,3.476,0,0,0,2.348.466l2.542-.4a1.429,1.429,0,0,1,1.382.573l1.513,2.08a3.477,3.477,0,0,0,1.992,1.333l2.5.606a1.429,1.429,0,0,1,1.056,1.056l.606,2.5a3.477,3.477,0,0,0,1.333,1.992l2.079,1.512A1.428,1.428,0,0,1,107.3,16.7l-.4,2.541a3.478,3.478,0,0,0,.466,2.348l1.342,2.2A1.428,1.428,0,0,1,108.711,25.279Z" transform="translate(-61.898 0)" fill="#015466"/>
    </g>
  </g>
  <g id="Group_79" data-name="Group 79" transform="translate(12.506 12.689)">
    <g id="Group_78" data-name="Group 78" transform="translate(0)">
      <path id="Path_193" data-name="Path 193" d="M184.808,109.068a1.825,1.825,0,0,0-1.536-1.261l-6.136-.728-2.588-5.611a1.843,1.843,0,0,0-3.347,0l-2.588,5.611-6.136.728a1.843,1.843,0,0,0-1.034,3.183l4.537,4.2-1.2,6.061a1.849,1.849,0,0,0,1.805,2.205,1.844,1.844,0,0,0,.9-.238l5.392-3.018,5.392,3.018a1.843,1.843,0,0,0,2.708-1.967l-1.2-6.061,4.537-4.2A1.824,1.824,0,0,0,184.808,109.068Zm-6.842,5.008a1.02,1.02,0,0,0-.308.947l1.232,6.2-5.518-3.089a1.02,1.02,0,0,0-1,0l-5.518,3.089,1.232-6.2a1.019,1.019,0,0,0-.308-.947l-4.643-4.293,6.28-.745a1.02,1.02,0,0,0,.806-.585l2.648-5.742,2.648,5.742a1.02,1.02,0,0,0,.806.585l6.28.745Z" transform="translate(-160.849 -100.398)" fill="#99ca3d"/>
    </g>
  </g>
</svg>
