<svg id="share" xmlns="http://www.w3.org/2000/svg" width="55.607" height="59.551" viewBox="0 0 55.607 59.551">
  <path id="Path_215" data-name="Path 215" d="M18.322,13.849a2.838,2.838,0,1,0,.483,4.563l3.652,2.109a20,20,0,0,0,0,18.51l-3.651,2.108a2.839,2.839,0,1,0,.872,1.511l3.65-2.107c.014.026.028.051.044.076A19.985,19.985,0,0,0,39.359,49.8v4.214a2.838,2.838,0,1,0,1.745,0V49.8a19.983,19.983,0,0,0,15.988-9.18q.024-.037.044-.076l3.65,2.107a2.838,2.838,0,1,0,.872-1.511l-3.652-2.108a19.994,19.994,0,0,0,2-12.514.872.872,0,1,0-1.721.282,18.56,18.56,0,0,1,.22,2.1h-5.35a29.585,29.585,0,0,0-1.07-7.2A25.972,25.972,0,0,0,56.013,20.5a18.972,18.972,0,0,1,1.186,2.41.872.872,0,0,0,1.617-.655c-.241-.6-.512-1.175-.807-1.741l3.648-2.106a2.835,2.835,0,1,0-.874-1.51l-3.644,2.1A20,20,0,0,0,41.1,9.751V5.538a2.838,2.838,0,1,0-1.745,0V9.752a19.985,19.985,0,0,0-15.988,9.181.788.788,0,0,0-.044.076L19.679,16.9A2.837,2.837,0,0,0,18.322,13.849ZM63.013,15.36a1.093,1.093,0,1,1-.4,1.493A1.094,1.094,0,0,1,63.013,15.36ZM15.847,16.59a1.094,1.094,0,1,1,2,.264A1.094,1.094,0,0,1,15.847,16.59ZM56,39.043a26.02,26.02,0,0,0-3.915-1.191,29.588,29.588,0,0,0,1.07-7.2h5.351A18.172,18.172,0,0,1,56,39.043ZM24.459,20.508A26.02,26.02,0,0,0,28.374,21.7a29.584,29.584,0,0,0-1.07,7.2H21.953A18.155,18.155,0,0,1,24.459,20.508Zm8.792-7.647A19.285,19.285,0,0,0,28.9,20.035a25.25,25.25,0,0,1-3.467-1.016A18.331,18.331,0,0,1,33.25,12.861Zm6.108-1.328v9.616a55.456,55.456,0,0,1-8.724-.769C32.136,16.329,35.111,12.076,39.359,11.533ZM27.3,30.648a29.592,29.592,0,0,0,1.069,7.2,25.948,25.948,0,0,0-3.915,1.191,18.068,18.068,0,0,1-2.5-8.4Zm12.054,17.37c-4.251-.543-7.224-4.8-8.724-8.847a55.46,55.46,0,0,1,8.724-.768ZM33.25,46.689a18.333,18.333,0,0,1-7.813-6.158A25.377,25.377,0,0,1,28.9,39.516,19.289,19.289,0,0,0,33.25,46.689Zm21.775-6.158a18.391,18.391,0,0,1-7.813,6.158,19.283,19.283,0,0,0,4.347-7.174A25.377,25.377,0,0,1,55.025,40.532ZM41.1,48.018V38.4a55.465,55.465,0,0,1,8.725.768C48.327,43.222,45.351,47.475,41.1,48.018Zm-1.745-11.36a56.791,56.791,0,0,0-9.272.844,27.747,27.747,0,0,1-1.038-6.854H39.359ZM29.049,28.9a27.747,27.747,0,0,1,1.038-6.854,56.789,56.789,0,0,0,9.272.844V28.9ZM41.1,11.533c4.251.544,7.224,4.8,8.725,8.847a55.517,55.517,0,0,1-8.725.769ZM17.45,44.191a1.093,1.093,0,1,1,.4-1.494A1.1,1.1,0,0,1,17.45,44.191ZM40.231,57.806a1.093,1.093,0,1,1,1.094-1.094A1.095,1.095,0,0,1,40.231,57.806ZM63.561,42.15A1.094,1.094,0,1,1,62.5,43.527,1.095,1.095,0,0,1,63.561,42.15ZM51.413,28.9H47.869a.872.872,0,1,0,0,1.745h3.544A27.747,27.747,0,0,1,50.375,37.5a56.8,56.8,0,0,0-9.272-.844v-6.01H43.8a.872.872,0,1,0,0-1.745H41.1v-6.01a56.794,56.794,0,0,0,9.272-.844A27.747,27.747,0,0,1,51.413,28.9Zm.145-8.868A19.269,19.269,0,0,0,47.2,12.847a18.251,18.251,0,0,1,7.838,6.169A25.3,25.3,0,0,1,51.558,20.035ZM40.231,1.745a1.094,1.094,0,1,1-1.093,1.094A1.095,1.095,0,0,1,40.231,1.745Zm0,0" transform="translate(-12.428)" fill="#015466"/>
  <path id="Path_216" data-name="Path 216" d="M60.966,31.713a25.875,25.875,0,0,1,13.947-8.058.872.872,0,1,0-.361-1.707,27.609,27.609,0,0,0-14.882,8.6.872.872,0,1,0,1.3,1.168Zm0,0" transform="translate(-52.532 -19.379)" fill="#015466"/>
  <path id="Path_217" data-name="Path 217" d="M294.347,31.714a.872.872,0,0,0,1.3-1.168,27.609,27.609,0,0,0-14.882-8.6.872.872,0,0,0-.361,1.707A25.875,25.875,0,0,1,294.347,31.714Zm0,0" transform="translate(-247.175 -19.38)" fill="#99ca3d"/>
  <path id="Path_218" data-name="Path 218" d="M452.445,195.253a.872.872,0,0,0,1.1-.56,28.038,28.038,0,0,0,0-17.192.872.872,0,1,0-1.659.539,26.284,26.284,0,0,1,0,16.114A.872.872,0,0,0,452.445,195.253Zm0,0" transform="translate(-399.287 -156.323)" fill="#99ca3d"/>
  <path id="Path_219" data-name="Path 219" d="M294.347,403.76a25.874,25.874,0,0,1-13.947,8.058.872.872,0,0,0,.361,1.707,27.606,27.606,0,0,0,14.882-8.6.872.872,0,0,0-1.3-1.168Zm0,0" transform="translate(-247.175 -356.544)" fill="#99ca3d"/>
  <path id="Path_220" data-name="Path 220" d="M60.966,403.762a.872.872,0,0,0-1.3,1.168,27.606,27.606,0,0,0,14.882,8.6.872.872,0,1,0,.361-1.707A25.877,25.877,0,0,1,60.966,403.762Zm0,0" transform="translate(-52.532 -356.545)" fill="#99ca3d"/>
  <path id="Path_221" data-name="Path 221" d="M1.351,177.5a28.041,28.041,0,0,0,0,17.192.872.872,0,0,0,1.66-.539,26.284,26.284,0,0,1,0-16.114.872.872,0,0,0-1.659-.539Zm0,0" transform="translate(0 -156.323)" fill="#99ca3d"/>
</svg>
