<svg id="customer" xmlns="http://www.w3.org/2000/svg" width="66.202" height="60.651" viewBox="0 0 66.202 60.651">
  <g id="Group_81" data-name="Group 81" transform="translate(0 0)">
    <g id="Group_80" data-name="Group 80" transform="translate(0 0)">
      <path id="Path_194" data-name="Path 194" d="M60.532,39.1H57.745V37.31l1.739-1.915a5.381,5.381,0,0,0,1.4-3.625V27.227a5.767,5.767,0,0,0-5.761-5.76h-2.65a5.767,5.767,0,0,0-5.76,5.76V31.77a5.382,5.382,0,0,0,1.4,3.625l1.739,1.916V39.1H47.066a5.679,5.679,0,0,0-5.537,4.452,6.271,6.271,0,0,0-.87-.062H37.394V41.3l1.992-2.193a5.936,5.936,0,0,0,1.544-4V29.992a6.369,6.369,0,0,0-6.362-6.362,1,1,0,0,0,0,1.99,4.377,4.377,0,0,1,4.372,4.372v5.116a3.949,3.949,0,0,1-1.027,2.66l-2.051,2.259a.994.994,0,0,0-.457.838v3.623a1,1,0,0,0,1,1h4.26a4.275,4.275,0,0,1,4.27,4.27V56H21.222V49.753a4.277,4.277,0,0,1,2.793-4.006.982.982,0,0,0,.218-.074,4.258,4.258,0,0,1,1.258-.189h4.26a1,1,0,0,0,1-1V40.865a1,1,0,0,0-.457-.838l-2.051-2.259a3.949,3.949,0,0,1-1.028-2.66V29.992a4.377,4.377,0,0,1,4.372-4.372,1,1,0,1,0,0-1.99,6.369,6.369,0,0,0-6.362,6.362v5.116a5.937,5.937,0,0,0,1.544,4L28.757,41.3v2.193H25.492a6.261,6.261,0,0,0-.82.055A5.678,5.678,0,0,0,19.136,39.1H16.349V37.31l1.739-1.915a5.381,5.381,0,0,0,1.4-3.625V27.227a5.767,5.767,0,0,0-5.761-5.76H11.078a5.767,5.767,0,0,0-5.76,5.76V31.77a5.381,5.381,0,0,0,1.4,3.625L8.457,37.31V39.1H5.67A5.676,5.676,0,0,0,0,44.772V51.2a1,1,0,0,0,1,1H16.48a1,1,0,0,0,0-1.99H1.99V44.772A3.684,3.684,0,0,1,5.67,41.093H9.453a1,1,0,0,0,1-1V36.881A.994.994,0,0,0,10,36.051L8.192,34.057a3.4,3.4,0,0,1-.883-2.287V27.227a3.774,3.774,0,0,1,3.77-3.77h2.65a3.774,3.774,0,0,1,3.77,3.77V31.77a3.394,3.394,0,0,1-.883,2.287L14.8,36.051a.994.994,0,0,0-.445.829V40.1a1,1,0,0,0,1,1h3.783a3.685,3.685,0,0,1,3.621,3.03,6.267,6.267,0,0,0-3.525,5.63v7.24a1,1,0,0,0,1,1h25.7a1,1,0,0,0,1-1v-7.24a6.266,6.266,0,0,0-3.478-5.606,3.685,3.685,0,0,1,3.625-3.054h3.783a1,1,0,0,0,1-1V36.881a.994.994,0,0,0-.445-.829l-1.811-1.995A3.394,3.394,0,0,1,48.7,31.77V27.227a3.774,3.774,0,0,1,3.77-3.77h2.65a3.774,3.774,0,0,1,3.77,3.77V31.77a3.394,3.394,0,0,1-.883,2.287L56.2,36.051a.994.994,0,0,0-.445.829V40.1a1,1,0,0,0,1,1h3.783a3.684,3.684,0,0,1,3.679,3.679v5.433H49.893a1,1,0,0,0,0,1.99H65.207a1,1,0,0,0,1-1V44.772A5.676,5.676,0,0,0,60.532,39.1Z" transform="translate(0 -21.467)" fill="#015466"/>
    </g>
  </g>
  <g id="Group_83" data-name="Group 83" transform="translate(23.791 42.134)">
    <g id="Group_82" data-name="Group 82">
      <path id="Path_195" data-name="Path 195" d="M203.318,354.326a1,1,0,0,0-.785-.675l-5.437-.892-2.529-4.895a1,1,0,0,0-1.768,0l-2.529,4.895-5.437.892a1,1,0,0,0-.547,1.682l3.874,3.917-.831,5.446a1,1,0,0,0,1.431,1.039l4.923-2.474,4.923,2.474a1,1,0,0,0,1.431-1.039l-.831-5.446,3.874-3.917A.994.994,0,0,0,203.318,354.326Zm-5.879,3.881a1,1,0,0,0-.276.85l.616,4.036-3.648-1.833a1,1,0,0,0-.894,0l-3.648,1.833.616-4.036a1,1,0,0,0-.276-.85l-2.871-2.9,4.029-.661a1,1,0,0,0,.723-.525l1.874-3.628,1.874,3.628a1,1,0,0,0,.723.525l4.029.661Z" transform="translate(-184 -347.325)" fill="#99ca3d"/>
    </g>
  </g>
  <g id="Group_85" data-name="Group 85" transform="translate(45.577 34.816)">
    <g id="Group_84" data-name="Group 84">
      <path id="Path_196" data-name="Path 196" d="M371.806,297.729a1,1,0,0,0-.785-.675l-5.437-.892-2.529-4.895a1,1,0,0,0-1.768,0l-2.529,4.895-5.437.892a1,1,0,0,0-.547,1.682l3.874,3.917-.831,5.446a1,1,0,0,0,1.431,1.039l4.923-2.474,4.923,2.474a1,1,0,0,0,1.431-1.039l-.831-5.446,3.874-3.917A.994.994,0,0,0,371.806,297.729Zm-5.879,3.881a1,1,0,0,0-.276.85l.616,4.036-3.648-1.833a.995.995,0,0,0-.894,0l-3.648,1.833.616-4.036a1,1,0,0,0-.276-.85l-2.871-2.9,4.029-.661a1,1,0,0,0,.723-.525l1.874-3.628,1.874,3.628a1,1,0,0,0,.723.525l4.029.661Z" transform="translate(-352.488 -290.728)" fill="#015466"/>
    </g>
  </g>
  <g id="Group_87" data-name="Group 87" transform="translate(2.006 34.816)">
    <g id="Group_86" data-name="Group 86">
      <path id="Path_197" data-name="Path 197" d="M34.83,297.729a1,1,0,0,0-.785-.675l-5.437-.892-2.529-4.895a1,1,0,0,0-1.769,0l-2.528,4.895-5.437.892a1,1,0,0,0-.547,1.682l3.874,3.917-.831,5.446a1,1,0,0,0,1.431,1.039l4.923-2.474,4.923,2.474a1,1,0,0,0,1.431-1.039l-.831-5.446,3.874-3.917A1,1,0,0,0,34.83,297.729Zm-5.88,3.881a1,1,0,0,0-.276.85l.616,4.036-3.648-1.833a.995.995,0,0,0-.894,0L21.1,306.5l.616-4.036a1,1,0,0,0-.276-.85l-2.87-2.9,4.029-.661a1,1,0,0,0,.723-.525l1.874-3.628,1.874,3.628a1,1,0,0,0,.723.525l4.029.661Z" transform="translate(-15.512 -290.728)" fill="#015466"/>
    </g>
  </g>
</svg>
